<svg xmlns="http://www.w3.org/2000/svg" xmlns:xlink="http://www.w3.org/1999/xlink" xmlns:fi="http://pattern.flaticon.com/" x="0" y="0" width="2400" height="1200" viewBox="0 0 2400 1200"><rect x="0px" y="0px" width="100%" height="100%" opacity="0" fill="#003eff"/><defs><g transform="matrix(0.09667494775947648 0.055242825901908786 -0.055242825901908786 0.09667494775947648 166.3931577757295 2.1087577492364318)" id="L1_34"><path d="M291.057,242.811c1.51,2.953,4.514,4.659,7.62,4.659c1.297,0,2.628-0.299,3.866-0.93     c0.503-0.256,50.731-25.771,75.503-33.596c4.489-1.425,6.98-6.221,5.555-10.709c-1.417-4.489-6.178-6.989-10.709-5.572     c-26.095,8.252-75.981,33.596-78.097,34.671C290.596,233.467,288.924,238.605,291.057,242.811z" fill="#ffffff"/><path d="M298.677,145.071c1.297,0,2.628-0.299,3.866-0.93c0.503-0.256,50.731-25.771,75.503-33.596     c4.489-1.425,6.98-6.221,5.555-10.709c-1.417-4.489-6.178-6.989-10.709-5.572c-26.095,8.252-75.981,33.596-78.097,34.671     c-4.198,2.133-5.871,7.27-3.738,11.477C292.567,143.364,295.571,145.071,298.677,145.071z" fill="#ffffff"/><path d="M503.469,128.004c-4.719,0-8.533,3.823-8.533,8.533v332.8c0,14.114-11.486,25.6-25.6,25.6h-204.8v-19.635     c12.442-4.352,44.851-14.498,76.8-14.498c74.334,0,124.809,16.461,125.312,16.631c2.568,0.853,5.436,0.427,7.68-1.178     c2.227-1.604,3.541-4.181,3.541-6.921V93.871c0-4.002-2.773-7.467-6.682-8.329c0,0-6.69-1.493-18.125-3.593     c-4.617-0.853-9.079,2.219-9.933,6.844c-0.853,4.642,2.21,9.088,6.844,9.941c4.361,0.802,8.013,1.51,10.829,2.074v357.188     c-19.337-5.069-62.276-14.259-119.467-14.259c-37.18,0-73.702,12.211-85.001,16.35c-10.044-4.437-40.405-16.35-77.133-16.35     c-58.778,0-107.196,9.694-128,14.618V100.475c17.041-4.19,67.371-15.138,128-15.138c31.113,0,57.796,9.685,68.267,14.063v335.804     c0,3.072,1.655,5.914,4.326,7.424c2.671,1.519,5.965,1.476,8.602-0.111c0.845-0.503,85.393-51.004,160.435-76.015     c3.49-1.169,5.837-4.42,5.837-8.098V8.537c0-2.799-1.374-5.419-3.678-7.014c-2.287-1.596-5.222-1.963-7.859-0.981     C346.856,26.15,277.771,69.141,277.079,69.568c-3.994,2.5-5.214,7.765-2.714,11.759c2.492,3.994,7.757,5.214,11.759,2.714     c0.631-0.401,60.732-37.794,123.477-63.027v331.281c-58.249,20.241-119.066,53.291-145.067,68.087V93.871     c0-3.234-1.826-6.187-4.719-7.637c-1.468-0.725-36.437-17.963-80.614-17.963c-77.107,0-136.388,16.683-138.88,17.399     c-3.661,1.041-6.187,4.395-6.187,8.201v375.467c0,2.671,1.263,5.197,3.388,6.81c1.502,1.135,3.311,1.724,5.146,1.724     c0.785,0,1.57-0.111,2.338-0.333c0.589-0.162,59.597-16.734,134.195-16.734c31.198,0,57.856,9.711,68.267,14.071v20.062h-204.8     c-14.114,0-25.6-11.486-25.6-25.6v-332.8c0-4.71-3.823-8.533-8.533-8.533s-8.533,3.823-8.533,8.533v332.8     c0,23.526,19.14,42.667,42.667,42.667h426.667c23.526,0,42.667-19.14,42.667-42.667v-332.8     C512.002,131.827,508.188,128.004,503.469,128.004z" fill="#ffffff"/><path d="M291.057,191.611c1.51,2.953,4.514,4.659,7.62,4.659c1.297,0,2.628-0.299,3.866-0.93     c0.503-0.256,50.731-25.771,75.503-33.596c4.489-1.425,6.98-6.221,5.555-10.709c-1.417-4.489-6.178-6.989-10.709-5.572     c-26.095,8.252-75.981,33.596-78.097,34.671C290.596,182.267,288.924,187.405,291.057,191.611z" fill="#ffffff"/><path d="M291.057,294.011c1.51,2.953,4.514,4.659,7.62,4.659c1.297,0,2.628-0.299,3.866-0.93     c0.503-0.256,50.731-25.771,75.503-33.596c4.489-1.425,6.98-6.221,5.555-10.709c-1.417-4.489-6.178-6.989-10.709-5.572     c-26.095,8.252-75.981,33.596-78.097,34.671C290.596,284.667,288.924,289.805,291.057,294.011z" fill="#ffffff"/><path d="M206.748,158.366c-52.693-12.365-112.572,3.388-115.089,4.062c-4.548,1.22-7.253,5.896-6.033,10.453     c1.024,3.814,4.471,6.323,8.235,6.323c0.734,0,1.476-0.094,2.219-0.29c0.572-0.162,58.223-15.326,106.778-3.934     c4.565,1.067,9.182-1.775,10.257-6.366C214.189,164.032,211.339,159.441,206.748,158.366z" fill="#ffffff"/><path d="M206.748,209.566c-52.693-12.356-112.572,3.388-115.089,4.062c-4.548,1.22-7.253,5.897-6.033,10.453     c1.024,3.814,4.471,6.323,8.235,6.323c0.734,0,1.476-0.094,2.219-0.29c0.572-0.162,58.223-15.326,106.778-3.934     c4.565,1.067,9.182-1.775,10.257-6.366C214.189,215.232,211.339,210.641,206.748,209.566z" fill="#ffffff"/><path d="M291.057,345.211c1.51,2.953,4.514,4.659,7.62,4.659c1.297,0,2.628-0.299,3.866-0.93     c0.503-0.256,50.731-25.771,75.503-33.596c4.489-1.425,6.98-6.221,5.555-10.709c-1.417-4.488-6.178-6.989-10.709-5.572     c-26.095,8.252-75.981,33.596-78.097,34.671C290.596,335.867,288.924,341.005,291.057,345.211z" fill="#ffffff"/><path d="M206.748,260.766c-52.693-12.356-112.572,3.379-115.089,4.062c-4.548,1.22-7.253,5.897-6.033,10.453     c1.024,3.814,4.471,6.332,8.235,6.332c0.734,0,1.476-0.102,2.219-0.299c0.572-0.162,58.223-15.326,106.778-3.934     c4.565,1.067,9.182-1.775,10.257-6.366C214.189,266.432,211.339,261.841,206.748,260.766z" fill="#ffffff"/><path d="M206.748,363.166c-52.693-12.365-112.572,3.388-115.089,4.062c-4.548,1.22-7.253,5.897-6.033,10.453     c1.024,3.814,4.471,6.332,8.235,6.332c0.734,0,1.476-0.102,2.219-0.299c0.572-0.162,58.223-15.326,106.778-3.934     c4.565,1.058,9.182-1.775,10.257-6.366C214.189,368.832,211.339,364.241,206.748,363.166z" fill="#ffffff"/><path d="M206.748,311.966c-52.693-12.365-112.572,3.379-115.089,4.062c-4.548,1.22-7.253,5.897-6.033,10.453     c1.024,3.814,4.471,6.332,8.235,6.332c0.734,0,1.476-0.102,2.219-0.299c0.572-0.162,58.223-15.326,106.778-3.934     c4.565,1.067,9.182-1.775,10.257-6.366C214.189,317.632,211.339,313.041,206.748,311.966z" fill="#ffffff"/></g><g transform="matrix(0.14560965481779864 -0.045681459958550316 0.045681459958550316 0.14560965481779864 225.03440876141298 107.42145365093688)" id="L1_36"><path d="M360.465,443.988c-4.574-1.161-9.207,1.638-10.342,6.204l-8.533,34.133c-1.152,4.582,1.638,9.207,6.212,10.351     c0.691,0.179,1.391,0.256,2.074,0.256c3.823,0,7.296-2.586,8.269-6.46l8.533-34.133     C367.821,449.765,365.039,445.132,360.465,443.988z" fill="#ffffff"/><path d="M256,273.066c1.109,0,2.219-0.213,3.26-0.648l93.867-38.844c4.352-1.801,6.417-6.793,4.617-11.145     c-1.801-4.361-6.81-6.409-11.153-4.625L256,255.299L17.067,156.432v-2.833c0-4.71-3.823-8.533-8.533-8.533S0,148.889,0,153.599     v8.533c0,3.456,2.082,6.571,5.274,7.885l247.467,102.4C253.781,272.852,254.891,273.066,256,273.066z" fill="#ffffff"/><path d="M357.513,360.49c-2.082-4.224-7.185-5.965-11.426-3.874c-16.205,8.013-43.273,17.331-81.553,18.603v-76.553     c0-4.71-3.823-8.533-8.533-8.533s-8.533,3.823-8.533,8.533v76.476c-105.958-3.379-140.151-67.567-145.067-78.251v-57.958     c0-4.71-3.823-8.533-8.533-8.533c-4.71,0-8.533,3.823-8.533,8.533v59.733c0,1.084,0.205,2.159,0.606,3.174     c1.485,3.695,37.803,90.692,170.061,90.692c46.225,0,78.618-11.213,97.647-20.617     C357.879,369.825,359.612,364.714,357.513,360.49z" fill="#ffffff"/><path d="M384,452.266c-4.719,0-8.533,3.823-8.533,8.533v25.6c0,4.71,3.814,8.533,8.533,8.533c4.719,0,8.533-3.823,8.533-8.533     v-25.6C392.533,456.089,388.719,452.266,384,452.266z" fill="#ffffff"/><path d="M503.467,145.066c-4.719,0-8.533,3.823-8.533,8.533v2.816l-102.4,42.146v-15.42l114.193-47.258     c3.191-1.314,5.274-4.429,5.274-7.885c0-3.456-2.082-6.562-5.265-7.885L259.26,17.714c-2.091-0.862-4.429-0.862-6.519,0     L5.274,120.114C2.082,121.437,0,124.543,0,127.999c0,3.456,2.082,6.571,5.274,7.885l247.467,102.4     c1.041,0.435,2.15,0.649,3.26,0.649s2.219-0.213,3.26-0.649l89.481-37.026c4.361-1.792,6.426-6.784,4.625-11.145     c-1.801-4.352-6.793-6.409-11.145-4.617L256,221.166L30.848,127.999L256,34.832l225.152,93.167l-97.971,40.542l-93.841-35.038     c0.495-1.775,0.794-3.601,0.794-5.504c0-14.353-14.993-25.6-34.133-25.6s-34.133,11.247-34.133,25.6     c0,14.353,14.993,25.6,34.133,25.6c8.542,0,16.162-2.33,22.084-6.084l97.382,36.361v27.341v0.009v182.878     c-9.907,3.541-17.067,12.919-17.067,24.03c0,14.114,11.486,25.6,25.6,25.6s25.6-11.486,25.6-25.6     c0-11.11-7.159-20.488-17.067-24.03v-48.435c24.499-18.492,33.28-43.119,33.664-44.211c0.307-0.896,0.469-1.843,0.469-2.79     v-59.733c0-4.71-3.814-8.533-8.533-8.533s-8.533,3.823-8.533,8.533v58.155c-1.476,3.618-6.605,14.771-17.067,25.779V217.019     l114.185-46.993c3.2-1.314,5.282-4.437,5.282-7.893v-8.533C512,148.889,508.186,145.066,503.467,145.066z M256,136.532     c-10.419,0-17.067-5.052-17.067-8.533c0-3.482,6.647-8.533,17.067-8.533s17.067,5.052,17.067,8.533     C273.067,131.481,266.419,136.532,256,136.532z M384,426.666c-4.71,0-8.533-3.831-8.533-8.533c0-4.702,3.823-8.533,8.533-8.533     s8.533,3.831,8.533,8.533C392.533,422.834,388.71,426.666,384,426.666z" fill="#ffffff"/><path d="M417.877,450.192c-1.143-4.565-5.786-7.356-10.342-6.204c-4.574,1.143-7.356,5.777-6.212,10.351l8.533,34.133     c0.973,3.874,4.446,6.46,8.269,6.46c0.683,0,1.382-0.077,2.074-0.256c4.574-1.143,7.356-5.769,6.212-10.351L417.877,450.192z" fill="#ffffff"/></g><g transform="matrix(0.16128807974075604 0.03437286851971148 -0.03437286851971148 0.16128807974075604 70.41008391309788 243.83255377618565)" id="L1_37"><path d="M475.266,126.603c-0.001,0-0.001,0-0.002,0l-0.016-0.016l-31.12-4.44c-4.374-0.623-7.415-4.674-6.792-9.048    c0.299-2.102,1.422-3.998,3.12-5.272l25.152-18.864c3.535-2.651,4.251-7.665,1.6-11.2l-28.8-38.4    c-2.651-3.535-7.665-4.251-11.2-1.6l-25.144,18.864c-3.52,2.671-8.538,1.983-11.209-1.537c-1.297-1.709-1.853-3.868-1.543-5.991    l4.448-31.12c0.627-4.374-2.41-8.427-6.783-9.055c-0.003,0-0.006-0.001-0.009-0.001L339.48,2.139    c-4.373-0.628-8.428,2.408-9.056,6.782c0,0.001,0,0.001,0,0.002l-4.448,31.12c-0.623,4.374-4.674,7.415-9.048,6.792    c-2.102-0.299-3.998-1.422-5.272-3.12L292.8,18.563c-2.651-3.535-7.665-4.251-11.2-1.6l-24.04,18.04    c-10.876-1.156-21.844-1.156-32.72,0C153.614,43.144,97.759,99.946,90.816,171.299c-0.216,2.264-0.296,4.512-0.408,6.76h-2.4    c-3.796,0.007-7.065,2.681-7.824,6.4l-5.528,26.288l-22.144-15.272c-3.178-2.193-7.47-1.802-10.2,0.928l-24,24    c-2.726,2.729-3.116,7.015-0.928,10.192l15.2,22.104l-26.296,5.528c-3.678,0.806-6.296,4.067-6.288,7.832v32    c-0.002,3.784,2.649,7.052,6.352,7.832l26.296,5.528l-15.2,22.104c-2.188,3.177-1.798,7.463,0.928,10.192l24,24    c2.73,2.73,7.022,3.121,10.2,0.928l22.104-15.24l5.528,26.296c0.759,3.719,4.028,6.393,7.824,6.4h32    c3.784,0.002,7.052-2.649,7.832-6.352l5.528-26.296l22.104,15.2c3.177,2.188,7.463,1.798,10.192-0.928l12.424-12.464v22.8    c0.036,11.381,6.133,21.88,16,27.552v44.448c0,17.673,14.327,32,32,32h32c17.673,0,32-14.327,32-32v-44.448    c9.867-5.672,15.964-16.171,16-27.552v-31.664c0.217-13.323,7.187-25.623,18.504-32.656c6.639-4.307,12.935-9.122,18.832-14.4    l-10.672-11.92c-5.275,4.728-10.911,9.037-16.856,12.888c-15.885,9.97-25.609,27.334-25.808,46.088v31.664c0,8.837-7.163,16-16,16    h-64c-8.837,0-16-7.163-16-16v-32.328c-0.185-18.399-9.756-35.428-25.376-45.152c-63.407-39.842-82.511-123.541-42.669-186.948    c24.72-39.341,67.862-63.286,114.325-63.452c-0.119,0.285-0.224,0.576-0.312,0.872c-0.297,2.1,0.253,4.233,1.528,5.928    l18.856,25.144c1.988,2.573,2.179,6.107,0.48,8.88c-1.636,2.79-4.799,4.312-8,3.848l-31.12-4.448    c-4.374-0.627-8.427,2.41-9.055,6.783c0,0.003-0.001,0.006-0.001,0.009l-6.792,47.512c-0.627,4.373,2.41,8.427,6.783,9.055    c0.003,0,0.006,0.001,0.009,0.001l31.12,4.448c4.374,0.623,7.415,4.674,6.792,9.048c-0.299,2.102-1.422,3.998-3.12,5.272    l-25.144,18.856c-3.535,2.651-4.251,7.665-1.6,11.2l28.8,38.4c2.651,3.535,7.665,4.251,11.2,1.6l25.152-18.856    c3.538-2.646,8.552-1.923,11.198,1.616c1.266,1.693,1.811,3.819,1.514,5.912l-4.44,31.12c-0.628,4.373,2.408,8.428,6.782,9.056    c0.001,0,0.001,0,0.002,0l47.52,6.792c0.374,0.048,0.751,0.072,1.128,0.072c3.983,0.005,7.362-2.921,7.928-6.864l4.44-31.12    c0.623-4.374,4.674-7.415,9.048-6.792c2.102,0.299,3.998,1.422,5.272,3.12l18.864,25.144c2.651,3.535,7.665,4.251,11.2,1.6    l38.4-28.8c3.535-2.651,4.251-7.665,1.6-11.2l-18.856-25.144c-1.979-2.577-2.17-6.105-0.48-8.88c1.601-2.827,4.793-4.359,8-3.84    l31.12,4.44c4.373,0.628,8.428-2.409,9.056-6.782c0-0.001,0-0.001,0-0.002l6.784-47.52    C482.676,131.285,479.64,127.231,475.266,126.603z M210.112,410.059h64v16h-64V410.059z M210.112,442.059h64v8    c0,8.837-7.163,16-16,16h-32c-8.837,0-16-7.163-16-16V442.059z M146.424,304.099c4.368,3.572,8.932,6.898,13.672,9.96    c7.559,4.777,13.249,12.004,16.12,20.472l-17.16,17.128l-16.616-11.456c-7.276-5.014-17.239-3.18-22.254,4.096    c-1.202,1.745-2.046,3.711-2.482,5.784l-4.192,19.976H94.496l-4.192-19.944c-1.82-8.647-10.305-14.182-18.952-12.362    c-2.073,0.436-4.039,1.28-5.784,2.482l-16.624,11.424l-14.576-14.544l11.448-16.608c5.019-7.273,3.191-17.237-4.082-22.256    c-1.746-1.205-3.714-2.051-5.79-2.488L16,291.563v-19.008l19.944-4.2c8.644-1.833,14.166-10.326,12.333-18.971    c-0.435-2.051-1.268-3.996-2.453-5.725l-11.456-16.656l14.576-14.544l16.632,11.456c7.279,5.009,17.242,3.169,22.251-4.11    c1.2-1.743,2.042-3.707,2.477-5.778l1.4-6.656c1.282,9.218,3.405,18.298,6.344,27.128c-26.323,3.138-45.118,27.022-41.98,53.345    c3.138,26.323,27.022,45.118,53.345,41.98C125.259,327.934,139.13,318.293,146.424,304.099z M134,292.827    c-5.974,16.605-24.277,25.223-40.882,19.25c-16.605-5.974-25.223-24.277-19.25-40.882c4.57-12.703,16.631-21.164,30.131-21.136    c0.104,0,0.2,0,0.304,0C111.66,265.922,121.707,280.391,134,292.827z M460.512,172.971l-23.2-3.312    c-13.122-1.874-25.278,7.245-27.152,20.366c-0.9,6.301,0.74,12.702,4.56,17.794l14.056,18.744l-25.6,19.2l-14.064-18.736    c-7.952-10.605-22.995-12.756-33.599-4.804c-5.092,3.818-8.459,9.503-9.361,15.804l-3.24,23.232l-31.672-4.528l3.312-23.2    c1.879-13.121-7.235-25.281-20.356-27.159c-6.305-0.903-12.709,0.737-17.804,4.559l-18.744,14.056l-19.2-25.6l18.736-14.064    c10.605-7.952,12.756-22.995,4.804-33.599c-3.818-5.092-9.503-8.459-15.804-9.361l-23.2-3.312l4.528-31.672l23.2,3.312    c13.121,1.879,25.281-7.235,27.159-20.356c0.903-6.305-0.737-12.709-4.559-17.804l-14.104-18.76l25.6-19.2l14.064,18.744    c7.952,10.605,22.995,12.756,33.599,4.804c5.092-3.818,8.459-9.503,9.361-15.804l3.312-23.2l31.672,4.52l-3.312,23.2    c-1.874,13.122,7.244,25.278,20.366,27.152c6.301,0.9,12.702-0.74,17.794-4.56l18.744-14.056l19.2,25.6l-18.744,14.064    c-10.605,7.952-12.756,22.995-4.804,33.599c3.818,5.092,9.503,8.459,15.804,9.361l23.2,3.312L460.512,172.971z" fill="#ffffff"/><path d="M344,76.171c-35.346,0-64,28.654-64,64c0,35.346,28.654,64,64,64c35.346,0,64-28.654,64-64    C407.96,104.841,379.33,76.21,344,76.171z M344,188.171c-26.51,0-48-21.49-48-48s21.49-48,48-48c26.51,0,48,21.49,48,48    C391.969,166.668,370.497,188.14,344,188.171z" fill="#ffffff"/><rect x="234px" y="354px" width="16px" height="24px" fill="#ffffff"/><path d="M207.12,275.491c-49.385-19.292-73.78-74.966-54.487-124.351c7.476-19.136,20.893-35.369,38.279-46.313l-8.552-13.536    c-52.336,32.971-68.035,102.126-35.064,154.462c12.769,20.269,31.701,35.91,54.016,44.626c19.752,7.568,32.795,26.528,32.8,47.68    h16C250.137,310.307,233.035,285.418,207.12,275.491z" fill="#ffffff"/><rect x="394px" y="298px" width="56px" height="16px" fill="#ffffff"/><rect x="402px" y="334px" width="16px" height="62px" transform="matrix(0.6401 -0.7683 0.7683 0.6401 -133.6437 446.8239)" fill="#ffffff"/><rect x="346px" y="362px" width="16px" height="56px" fill="#ffffff"/><rect x="9px" y="130px" width="65px" height="15px" transform="matrix(0.9701 -0.2425 0.2425 0.9701 -32.2251 14.3351)" fill="#ffffff"/><rect x="46px" y="35px" width="15px" height="68px" transform="matrix(0.5812 -0.8137 0.8137 0.5812 -34.3557 73.3688)" fill="#ffffff"/><rect x="97px" y="1px" width="16px" height="66px" transform="matrix(0.9688 -0.2477 0.2477 0.9688 -5.133 27.2971)" fill="#ffffff"/></g><g transform="matrix(0.11785113518861143 -0.017677670117397355 0.017677670117397355 0.11785113518861143 267.4730867265579 244.95836838290862)" id="L1_39"><path d="M272,384c-17.673,0-32-14.327-32-32v-39.096c10.413-17.524,15.938-37.519,16-57.904v-71c0-66.168-57.424-120-128-120    S0,117.832,0,184v71c0.62,44.056,25.503,84.173,64.696,104.304l7.528-14.12C38.255,327.825,16.633,293.142,16,255v-71    c0-57.344,50.24-104,112-104s112,46.656,112,104v71c-0.633,38.142-22.255,72.825-56.224,90.184L145.504,365.6    c-10.956,5.761-24.045,5.761-35,0l-7.536,14.12c15.672,8.235,34.392,8.235,50.064,0L160,376v40c0,4.109,3.112,7.549,7.2,7.96    l58.4,5.84c8.187,0.8,14.422,7.694,14.4,15.92V480h16v-34.28c0.049-16.453-12.425-30.243-28.8-31.84L176,408.8v-41.336    l15.304-8.16c12.188-6.48,23.233-14.911,32.696-24.96V352c0.026,26.499,21.501,47.974,48,48h40v-16H272z" fill="#ffffff"/><path d="M80,361.144V408.8l-51.2,5.12c-16.36,1.595-28.828,15.363-28.8,31.8V480h16v-34.28c-0.023-8.226,6.213-15.12,14.4-15.92    l58.4-5.8c4.103-0.412,7.221-3.876,7.2-8v-54.856H80z" fill="#ffffff"/><path d="M217.648,185.504l-23.128-4.856l13.4-19.44c2.193-3.178,1.802-7.47-0.928-10.2l-22-22    c-2.729-2.726-7.015-3.116-10.192-0.928l-19.44,13.4l-4.864-23.128c-0.78-3.703-4.047-6.354-7.832-6.352h-29.328    c-3.784-0.002-7.052,2.649-7.832,6.352l-4.864,23.128l-19.44-13.4c-3.177-2.188-7.463-1.798-10.192,0.928l-22,22    c-2.73,2.73-3.121,7.022-0.928,10.2l13.4,19.44l-23.128,4.856c-3.703,0.78-6.354,4.048-6.352,7.832v29.328    c-0.002,3.784,2.649,7.052,6.352,7.832l23.128,4.856l-13.4,19.44c-2.193,3.178-1.802,7.47,0.928,10.2l22,22    c2.729,2.726,7.015,3.116,10.192,0.928l19.44-13.4l4.864,23.128c0.78,3.703,4.047,6.354,7.832,6.352h29.328    c3.784,0.002,7.052-2.649,7.832-6.352l4.864-23.128l19.44,13.4c3.177,2.188,7.463,1.798,10.192-0.928l22-22    c2.73-2.73,3.121-7.022,0.928-10.2l-13.4-19.44l23.128-4.856c3.703-0.78,6.354-4.047,6.352-7.832v-29.328    C224.002,189.552,221.351,186.284,217.648,185.504z M208,216.176l-17.752,3.728c-8.286,1.757-13.579,9.897-11.822,18.183    c0.419,1.979,1.226,3.855,2.374,5.521l10.168,14.792L178.4,270.968L163.608,260.8c-6.968-4.807-16.514-3.055-21.321,3.913    c-1.155,1.674-1.965,3.561-2.383,5.551L136.168,288h-16.336l-3.736-17.752c-1.749-8.283-9.882-13.579-18.164-11.83    c-1.986,0.419-3.869,1.229-5.54,2.382L77.6,270.968L65.032,258.4L75.2,243.616c4.805-6.98,3.041-16.534-3.939-21.339    c-1.667-1.148-3.545-1.954-5.525-2.373L48,216.176v-16.352l17.752-3.728c8.286-1.757,13.579-9.897,11.822-18.183    c-0.419-1.979-1.226-3.855-2.374-5.521L65.032,157.6L77.6,145.032L92.392,155.2c6.968,4.807,16.514,3.055,21.321-3.913    c1.155-1.674,1.965-3.561,2.383-5.551L119.832,128h16.336l3.736,17.752c1.749,8.283,9.882,13.579,18.164,11.83    c1.986-0.419,3.869-1.229,5.54-2.382l14.792-10.168l12.568,12.568L180.8,172.384c-4.805,6.98-3.041,16.534,3.939,21.339    c1.667,1.148,3.545,1.954,5.525,2.373L208,199.824V216.176z" fill="#ffffff"/><path d="M128,168c-22.091,0-40,17.909-40,40c0.026,22.08,17.92,39.974,40,40c22.091,0,40-17.909,40-40S150.091,168,128,168z     M128,232c-13.255,0-24-10.745-24-24s10.745-24,24-24s24,10.745,24,24S141.255,232,128,232z" fill="#ffffff"/><path d="M447.77,39.589c-13.355,0.192-24.026,11.174-23.834,24.529c0.105,7.338,3.537,14.231,9.329,18.738L415.72,136    c-5.732,0.078-11.243,2.223-15.52,6.04L367.6,124c2.423-12.816-6.002-25.169-18.818-27.592C347.206,96.11,345.604,95.973,344,96    c-13.255,0-24,10.745-24,24c0.013,5.169,1.716,10.192,4.848,14.304l-23,34.496c-1.908-0.511-3.873-0.78-5.848-0.8    c-13.255,0-24,10.745-24,24s10.745,24,24,24s24-10.745,24-24c-0.014-5.171-1.717-10.197-4.848-14.312l23-34.488    c1.908,0.511,3.873,0.78,5.848,0.8c5.832-0.023,11.453-2.184,15.8-6.072l32.6,18.112c-2.299,13.054,6.421,25.5,19.475,27.798    s25.5-6.42,27.798-19.474c1.54-8.743-1.873-17.622-8.873-23.084l17.664-53.328c13.355-0.192,24.026-11.174,23.834-24.529    C472.107,50.068,461.125,39.397,447.77,39.589z M296,200c-4.418,0-8-3.582-8-8s3.582-8,8-8s8,3.582,8,8S300.418,200,296,200z     M344,128c-4.418,0-8-3.582-8-8s3.582-8,8-8s8,3.582,8,8S348.418,128,344,128z M416,168c-4.418,0-8-3.582-8-8s3.582-8,8-8    s8,3.582,8,8S420.418,168,416,168z M448,72c-4.418,0-8-3.582-8-8s3.582-8,8-8s8,3.582,8,8S452.418,72,448,72z" fill="#ffffff"/><path d="M456,168 456,344 440,344 440,296 424,296 424,344 408,344 408,288 392,288 392,344 376,344 376,264 360,264     360,344 344,344 344,216 328,216 328,344 312,344 312,312 296,312 296,344 280,344 280,360 472,360 472,352 472,344 472,168z" fill="#ffffff"/><path d="M272,0c-26.499,0.026-47.974,21.501-48,48v40h16V48c0-17.673,14.327-32,32-32h40V0H272z" fill="#ffffff"/><rect x="328px" y="384px" width="16px" height="16px" fill="#ffffff"/><rect x="360px" y="384px" width="120px" height="16px" fill="#ffffff"/><rect x="336px" y="0px" width="144px" height="16px" fill="#ffffff"/></g><g transform="matrix(0.11785112782046142 -0.017677669012174865 0.017677669012174865 0.11785112782046142 66.47308876016729 125.95836988601123)" id="L1_40"><path d="M240,0c-26.51,0-48,21.49-48,48s21.49,48,48,48c26.499-0.026,47.974-21.501,48-48C288,21.49,266.51,0,240,0z M240,80    c-17.673,0-32-14.327-32-32s14.327-32,32-32c17.673,0,32,14.327,32,32S257.673,80,240,80z" fill="#ffffff"/><path d="M272,104h-1.888l-1.688,0.84c-17.901,8.913-38.947,8.913-56.848,0l-1.688-0.84H208c-22.08,0.026-39.974,17.92-40,40v48    c0,13.255,10.745,24,24,24h96c13.255,0,24-10.745,24-24v-48C311.974,121.92,294.08,104.026,272,104z M296,192c0,4.418-3.582,8-8,8    h-96c-4.418,0-8-3.582-8-8v-48c0.002-12.592,9.735-23.042,22.296-23.936c21.375,9.92,46.034,9.92,67.408,0    c12.56,0.894,22.294,11.344,22.296,23.936V192z" fill="#ffffff"/><path d="M408,264c-26.51,0-48,21.49-48,48c0,26.51,21.49,48,48,48c26.51,0,48-21.49,48-48    C455.974,285.501,434.499,264.026,408,264z M408,344c-17.673,0-32-14.327-32-32c0-17.673,14.327-32,32-32    c17.673,0,32,14.327,32,32C440,329.673,425.673,344,408,344z" fill="#ffffff"/><path d="M440,368h-1.888l-1.688,0.8c-17.901,8.912-38.947,8.912-56.848,0l-1.688-0.8H376c-22.08,0.026-39.974,17.92-40,40v48    c0,13.255,10.745,24,24,24h96c13.255,0,24-10.745,24-24v-48C479.974,385.92,462.08,368.026,440,368z M464,456c0,4.418-3.582,8-8,8    h-96c-4.418,0-8-3.582-8-8v-48c0.002-12.592,9.735-23.042,22.296-23.936c21.375,9.92,46.033,9.92,67.408,0    C454.265,384.958,463.998,395.408,464,408V456z" fill="#ffffff"/><path d="M72,264c-26.51,0-48,21.49-48,48c0,26.51,21.49,48,48,48s48-21.49,48-48C119.974,285.501,98.499,264.026,72,264z M72,344    c-17.673,0-32-14.327-32-32c0-17.673,14.327-32,32-32s32,14.327,32,32C104,329.673,89.673,344,72,344z" fill="#ffffff"/><path d="M104,368h-1.888l-1.688,0.8c-17.901,8.912-38.947,8.912-56.848,0l-1.688-0.8H40c-22.08,0.026-39.974,17.92-40,40v48    c0,13.255,10.745,24,24,24h96c13.255,0,24-10.745,24-24v-48C143.974,385.92,126.08,368.026,104,368z M128,456c0,4.418-3.582,8-8,8    H24c-4.418,0-8-3.582-8-8v-48c0.002-12.592,9.735-23.042,22.296-23.936c21.375,9.92,46.033,9.92,67.408,0    C118.265,384.958,127.998,395.408,128,408V456z" fill="#ffffff"/><path d="M319.372,406.276c-0.004-0.009-0.008-0.018-0.012-0.028c-1.732-4.065-6.431-5.956-10.495-4.224c0,0,0,0,0,0    c-36.125,15.14-76.245,17.902-114.104,7.856l7.488-2.2c4.242-1.242,6.674-5.686,5.432-9.928s-5.686-6.674-9.928-5.432l-32,9.384    c-0.12,0-0.208,0.136-0.32,0.176c-0.741,0.276-1.437,0.662-2.064,1.144c-0.278,0.15-0.545,0.318-0.8,0.504    c-0.844,0.753-1.513,1.681-1.96,2.72c-0.434,1.046-0.641,2.172-0.608,3.304c0.195,1.083,0.462,2.152,0.8,3.2    c0.048,0.112,0,0.24,0.088,0.352l16,30.616c2.046,3.919,6.881,5.438,10.8,3.392s5.438-6.881,3.392-10.8l-6.512-12.448    c43.014,12.93,89.195,10.417,130.552-7.104C319.189,415.039,321.093,410.345,319.372,406.276z" fill="#ffffff"/><path d="M453.656,210.344c-3.124-3.123-8.188-3.123-11.312,0l-11.32,11.32c-6.624-70.07-51.111-130.876-115.888-158.4    c-4.065-1.732-8.764,0.159-10.496,4.224c-1.732,4.065,0.159,8.764,4.224,10.496c58.11,24.697,98.504,78.669,105.816,141.384    l-9.024-9.024c-3.178-3.07-8.242-2.982-11.312,0.196c-2.994,3.1-2.994,8.015,0,11.116l24,24c3.12,3.128,8.186,3.135,11.314,0.014    c0.005-0.005,0.01-0.01,0.014-0.014l24-24C456.791,218.528,456.784,213.464,453.656,210.344z" fill="#ffffff"/><path d="M175.768,69.272c-0.026-0.467-0.095-0.93-0.208-1.384c0-0.072-0.088-0.12-0.12-0.2c-0.032-0.08,0-0.136,0-0.2    c-0.218-0.389-0.47-0.759-0.752-1.104c-0.259-0.469-0.565-0.911-0.912-1.32c-0.473-0.419-0.997-0.776-1.56-1.064    c-0.281-0.239-0.581-0.456-0.896-0.648l-32-14.616c-4.087-1.678-8.761,0.275-10.439,4.362c-1.587,3.865,0.068,8.301,3.799,10.182    l16.568,7.576C86.875,104.237,47.955,169.256,48,240c0,4.418,3.582,8,8,8s8-3.582,8-8c-0.04-62.293,32.901-119.952,86.584-151.552    l-5.784,12.088c-1.907,3.977-0.236,8.747,3.736,10.664c1.079,0.527,2.263,0.801,3.464,0.8c3.072-0.004,5.87-1.767,7.2-4.536    l16-33.384c0-0.08,0-0.168,0.064-0.248c0.208-0.547,0.353-1.116,0.432-1.696c0.137-0.431,0.239-0.872,0.304-1.32    C175.973,70.295,175.896,69.778,175.768,69.272z" fill="#ffffff"/></g><g transform="matrix(0.10577369747100542 -0.029833607596083247 0.029833607596083247 0.10577369747100542 312.52938020215646 16.36957736577483)" id="L1_41"><path d="M422.32,403.096l-48.68-62.584c15.774-4.713,29.4-14.801,38.512-28.512c11.464-19.816,6.28-44,1.264-67.36    c-3.033-12-4.848-24.276-5.416-36.64c0.566-12.375,2.38-24.662,5.416-36.672c4.984-23.376,10.2-47.544-1.264-67.328    c-11.872-20.512-35.776-28.104-58.896-35.432c-11.509-3.171-22.655-7.536-33.256-13.024c-9.62-6.24-18.552-13.48-26.648-21.6    C276.2,18.024,256.752,0,232,0s-44.2,18.024-61.36,33.936c-8.093,8.122-17.023,15.365-26.64,21.608    c-10.6,5.477-21.743,9.831-33.248,12.992c-23.12,7.328-47.024,14.92-58.896,35.432c-11.464,19.816-6.28,44-1.264,67.36    C53.625,183.339,55.437,195.625,56,208c-0.566,12.375-2.38,24.662-5.416,36.672c-4.984,23.376-10.2,47.544,1.264,67.328    c9.124,13.716,22.765,23.801,38.552,28.504l-48.72,62.584c-2.712,3.488-2.083,8.514,1.406,11.226    c1.676,1.303,3.8,1.886,5.906,1.622l57.2-7.144l14.12,49.408c0.827,2.896,3.211,5.082,6.168,5.656    c0.501,0.095,1.01,0.144,1.52,0.144c2.47,0.002,4.803-1.138,6.32-3.088l51.088-65.712c12.572,12.239,29.086,19.612,46.592,20.8    c17.506-1.188,34.02-8.561,46.592-20.8l51.088,65.688c1.512,1.959,3.845,3.108,6.32,3.112c0.51,0,1.019-0.049,1.52-0.144    c2.957-0.574,5.341-2.76,6.168-5.656l14.12-49.4l57.2,7.144c4.384,0.55,8.384-2.558,8.934-6.942    C424.206,406.896,423.623,404.772,422.32,403.096z M131.36,438.648L119.688,397.8c-1.085-3.789-4.769-6.223-8.68-5.736l-44.8,5.6    l40.152-51.616l4.424,1.416c11.494,3.163,22.626,7.517,33.216,12.992c9.62,6.24,18.552,13.48,26.648,21.6l2.752,2.544    L131.36,438.648z M232,400c-18.48,0-34.024-14.4-50.488-29.664c-8.957-8.949-18.851-16.906-29.512-23.736    c-11.599-6.072-23.809-10.899-36.424-14.4c-21.144-6.712-41.12-13.048-49.888-28.2c-8.368-14.472-4.048-34.64,0.536-56    c3.299-13.099,5.235-26.503,5.776-40c-0.538-13.497-2.471-26.901-5.768-40c-4.584-21.352-8.904-41.52-0.536-56    c8.8-15.152,28.744-21.488,49.888-28.2c12.613-3.502,24.819-8.329,36.416-14.4c10.658-6.83,20.55-14.788,29.504-23.736    C197.976,30.4,213.52,16,232,16s34.024,14.4,50.488,29.664C291.445,54.613,301.339,62.57,312,69.4    c11.599,6.072,23.809,10.899,36.424,14.4c21.144,6.712,41.12,13.048,49.888,28.2c8.368,14.472,4.048,34.64-0.536,56    c-3.299,13.099-5.235,26.503-5.776,40c0.538,13.497,2.471,26.901,5.768,40c4.584,21.352,8.904,41.52,0.536,56    c-8.8,15.152-28.744,21.488-49.888,28.2c-12.613,3.502-24.819,8.329-36.416,14.4c-10.658,6.83-20.55,14.788-29.504,23.736    C266.024,385.6,250.48,400,232,400z M353.032,392.064c-3.911-0.487-7.595,1.947-8.68,5.736l-11.712,40.848l-42.032-54.04    l2.752-2.544c8.093-8.122,17.023-15.365,26.64-21.608c10.6-5.477,21.743-9.831,33.248-12.992l4.424-1.416l40.16,51.616    L353.032,392.064z" fill="#ffffff"/><path d="M232,64c-79.529,0-144,64.471-144,144s64.471,144,144,144s144-64.471,144-144C375.908,128.509,311.491,64.093,232,64z     M232,336c-70.692,0-128-57.308-128-128S161.308,80,232,80s128,57.308,128,128C359.916,278.658,302.658,335.916,232,336z" fill="#ffffff"/><path d="M324.304,174.584c-3.01-4.135-7.814-6.582-12.928-6.584H262.4l-15.2-46.616c-2.759-8.395-11.801-12.963-20.196-10.204    c-4.829,1.587-8.617,5.375-10.204,10.204L201.64,168h-49.016c-8.837-0.004-16.004,7.155-16.008,15.992    c-0.003,5.12,2.445,9.931,6.584,12.944l39.648,28.8l-15.144,46.616c-2.732,8.404,1.867,17.431,10.27,20.162    c4.873,1.584,10.209,0.738,14.354-2.274L232,261.448l39.656,28.8c5.586,4.15,13.23,4.15,18.816,0    c5.669-4.029,8.029-11.297,5.808-17.888l-15.144-46.624l39.648-28.8C327.929,191.736,329.505,181.728,324.304,174.584z     M267.024,216.216c-2.806,2.039-3.979,5.654-2.904,8.952l16.944,52.144l-44.36-32.224c-2.803-2.035-6.597-2.035-9.4,0    l-44.36,32.224l16.936-52.144c1.071-3.296-0.101-6.906-2.904-8.944L152.624,184h54.824c3.466,0,6.537-2.232,7.608-5.528    L232,126.328l16.944,52.136c1.071,3.296,4.142,5.528,7.608,5.528L311.376,184L267.024,216.216z" fill="#ffffff"/></g></defs><g fi:class="KUsePattern" opacity="0.2"><pattern id="pattern_L1_34" width="350" height="350" patternUnits="userSpaceOnUse"><use xlink:href="#L1_34" x="-350" y="-350"/><use xlink:href="#L1_34" x="0" y="-350"/><use xlink:href="#L1_34" x="350" y="-350"/><use xlink:href="#L1_34" x="-350" y="0"/><use xlink:href="#L1_34" x="0" y="0"/><use xlink:href="#L1_34" x="350" y="0"/><use xlink:href="#L1_34" x="-350" y="350"/><use xlink:href="#L1_34" x="0" y="350"/><use xlink:href="#L1_34" x="350" y="350"/></pattern><rect x="0" y="0" width="100%" height="100%" fill="url(#pattern_L1_34)"/></g><g fi:class="KUsePattern" opacity="0.2"><pattern id="pattern_L1_36" width="350" height="350" patternUnits="userSpaceOnUse"><use xlink:href="#L1_36" x="-350" y="-350"/><use xlink:href="#L1_36" x="0" y="-350"/><use xlink:href="#L1_36" x="350" y="-350"/><use xlink:href="#L1_36" x="-350" y="0"/><use xlink:href="#L1_36" x="0" y="0"/><use xlink:href="#L1_36" x="350" y="0"/><use xlink:href="#L1_36" x="-350" y="350"/><use xlink:href="#L1_36" x="0" y="350"/><use xlink:href="#L1_36" x="350" y="350"/></pattern><rect x="0" y="0" width="100%" height="100%" fill="url(#pattern_L1_36)"/></g><g fi:class="KUsePattern" opacity="0.2"><pattern id="pattern_L1_37" width="350" height="350" patternUnits="userSpaceOnUse"><use xlink:href="#L1_37" x="-350" y="-350"/><use xlink:href="#L1_37" x="0" y="-350"/><use xlink:href="#L1_37" x="350" y="-350"/><use xlink:href="#L1_37" x="-350" y="0"/><use xlink:href="#L1_37" x="0" y="0"/><use xlink:href="#L1_37" x="350" y="0"/><use xlink:href="#L1_37" x="-350" y="350"/><use xlink:href="#L1_37" x="0" y="350"/><use xlink:href="#L1_37" x="350" y="350"/></pattern><rect x="0" y="0" width="100%" height="100%" fill="url(#pattern_L1_37)"/></g><g fi:class="KUsePattern" opacity="0.2"><pattern id="pattern_L1_39" width="350" height="350" patternUnits="userSpaceOnUse"><use xlink:href="#L1_39" x="-350" y="-350"/><use xlink:href="#L1_39" x="0" y="-350"/><use xlink:href="#L1_39" x="350" y="-350"/><use xlink:href="#L1_39" x="-350" y="0"/><use xlink:href="#L1_39" x="0" y="0"/><use xlink:href="#L1_39" x="350" y="0"/><use xlink:href="#L1_39" x="-350" y="350"/><use xlink:href="#L1_39" x="0" y="350"/><use xlink:href="#L1_39" x="350" y="350"/></pattern><rect x="0" y="0" width="100%" height="100%" fill="url(#pattern_L1_39)"/></g><g fi:class="KUsePattern" opacity="0.2"><pattern id="pattern_L1_40" width="350" height="350" patternUnits="userSpaceOnUse"><use xlink:href="#L1_40" x="-350" y="-350"/><use xlink:href="#L1_40" x="0" y="-350"/><use xlink:href="#L1_40" x="350" y="-350"/><use xlink:href="#L1_40" x="-350" y="0"/><use xlink:href="#L1_40" x="0" y="0"/><use xlink:href="#L1_40" x="350" y="0"/><use xlink:href="#L1_40" x="-350" y="350"/><use xlink:href="#L1_40" x="0" y="350"/><use xlink:href="#L1_40" x="350" y="350"/></pattern><rect x="0" y="0" width="100%" height="100%" fill="url(#pattern_L1_40)"/></g><g fi:class="KUsePattern" opacity="0.2"><pattern id="pattern_L1_41" width="350" height="350" patternUnits="userSpaceOnUse"><use xlink:href="#L1_41" x="-350" y="-350"/><use xlink:href="#L1_41" x="0" y="-350"/><use xlink:href="#L1_41" x="350" y="-350"/><use xlink:href="#L1_41" x="-350" y="0"/><use xlink:href="#L1_41" x="0" y="0"/><use xlink:href="#L1_41" x="350" y="0"/><use xlink:href="#L1_41" x="-350" y="350"/><use xlink:href="#L1_41" x="0" y="350"/><use xlink:href="#L1_41" x="350" y="350"/></pattern><rect x="0" y="0" width="100%" height="100%" fill="url(#pattern_L1_41)"/></g></svg>